# xmcd CD database file
#
# Track frame offsets:
#	150
#	14469
#	30108
#	44670
#	60913
#	74723
#	89007
#	106596
#	124670
#	139318
#	153120
#	166752
#	180849
#	192847
#	206537
#	220795
#	233346
#	247347
#	260740
#	275184
#
# Disc length: 3851 seconds
#
# Revision: 3
# Processed by: cddbd v1.5.1PL2 Copyright (c) Steve Scherf et al.
# Submitted via: CDex 1.51
#
DISCID=170f0914
DTITLE=John Lee Hooker - Hommage [CD 1)
DYEAR=1900
DGENRE=Blues
TTITLE0=Boogie Chillen
TTITLE1=Poor Slim
TTITLE2=Sally Mae
TTITLE3=My First Wife Left Me
TTITLE4=Shake Your Boogie
TTITLE5=Stomp Boogie
TTITLE6=Leavin' Chicago
TTITLE7=Wednesday Evening Blues
TTITLE8=Do The Boogie
TTITLE9=Miss Lorraine
TTITLE10=Drifting From Door To Door
TTITLE11=Alberta
TTITLE12=Howlin' Wolf
TTITLE13=Crawling Kingsnake
TTITLE14=Whistlin' And Moanin' Blues
TTITLE15=Cotton Pickin' Boogie
TTITLE16=Must I Wait Till Your Man Has Gone
TTITLE17=I Need Lovin'
TTITLE18=Henry's Swing Club
TTITLE19=Hobo Blues
EXTD=
EXTT0=
EXTT1=
EXTT2=
EXTT3=
EXTT4=
EXTT5=
EXTT6=
EXTT7=
EXTT8=
EXTT9=
EXTT10=
EXTT11=
EXTT12=
EXTT13=
EXTT14=
EXTT15=
EXTT16=
EXTT17=
EXTT18=
EXTT19=
PLAYORDER=
